<?xml version="1.0" encoding="UTF-8"?>
<svg width="320px" height="320px" viewBox="0 0 320 320" version="1.1" xmlns="http://www.w3.org/2000/svg" xmlns:xlink="http://www.w3.org/1999/xlink">
    <!-- Generator: Sketch 60.1 (88133) - https://sketch.com -->
    <title>OKBX0D1</title>
    <desc>Created with Sketch.</desc>
    <g id="Page-1" stroke="none" stroke-width="1" fill="none" fill-rule="evenodd">
        <g id="‌Dashboard-Template" transform="translate(-400.000000, -268.000000)">
            <g id="OKBX0D1" transform="translate(400.000000, 268.000000)">
                <path d="M1.18137137,161.928679 C0.681175589,118.567137 17.7535745,75.1568264 51.9569859,43.4362862 C86.1615854,11.7153494 130.699604,-2.01199262 173.846738,1.79908738 L175,0.72935227 C171.996449,0.445860572 168.975869,0.236116365 165.937466,0.119944243 C123.275875,-1.51360232 82.5315026,13.5840157 51.2120387,42.6294252 C19.8917827,71.6764207 1.74453717,111.195163 0.112861299,153.906855 C-0.00396986208,156.947551 -0.0253559051,159.979525 0.0269210889,163 L1.18137137,161.928679" id="Fill-3" fill="#2d5183"></path>
                <path d="M297.156891,79 L298,78.2062762 C292.275468,68.3528252 285.472305,59.0493028 277.627678,50.4565185 C266.47204,38.2342051 253.744425,28.0226055 239.88145,20 L239,20.8290621 C252.747953,28.709123 265.542469,38.8353545 276.833082,51.2045803 C284.742654,59.8692325 291.506303,69.2009462 297.156891,79" id="Fill-4" fill="#2d5183"></path>
                <path d="M317.595459,139.998194 C323.694849,189.114109 306.930056,240.39033 267.944978,276.519798 C203.621285,336.128856 102.812733,332.274993 43.2272357,267.923025 C31.7778858,255.559309 22.6803758,241.841779 15.8950322,227.335617 L15,228.16513 C21.9202332,242.79949 31.1070084,256.452325 42.4198818,268.668793 C71.4842265,300.060113 111.027113,318.24471 153.763312,319.879923 C196.500304,321.515135 237.317104,306.403706 268.691631,277.326291 C300.067746,248.251257 318.246103,208.691811 319.882234,165.93735 C320.227393,156.847632 319.810822,147.845627 318.672195,139 L317.595459,139.998194" id="Fill-5" fill="#2d5183"></path>
                <path d="M45.2377742,97 C50.0813071,88.0724216 56.015505,79.5712027 63.0688405,71.7017314 C110.70021,18.5570261 191.5411,13.4814688 245.294508,59.4751606 L246,58.6879737 C220.273279,36.6479395 187.746314,25.4742811 153.89576,27.1677319 C118.567392,28.9355059 86.0344946,44.4986303 62.2909805,70.9908656 C55.1063539,79.0069855 48.9938058,87.7375674 44,97 L45.2377742,97" id="Fill-6" fill="#2d5183"></path>
                <path d="M28.3289798,152 L27.209281,152 C26.9507066,156.686235 26.9277749,161.411737 27.1626269,166.163417 C28.8386166,200.112544 43.0519108,231.484341 67.2950484,255 L68,254.21863 C39.6307409,226.666819 26.2342892,189.040495 28.3289798,152" id="Fill-7" fill="#2d5183"></path>
                <path d="M277,97 C275.669485,94.2873865 274.257963,91.6189695 272.770173,89 L272,89.9399409 C273.3072,92.2604748 274.542875,94.6164533 275.721647,97 L277,97" id="Fill-8" fill="#2d5183"></path>
                <path d="M292.774263,153 L291.6499,153 C293.620512,186.945209 282.489944,221.625968 257.834478,248.762204 C217.440297,293.221024 153.241262,303.676503 101.772851,278.356994 L101,279.207622 C121.138174,289.222166 143.617914,293.974369 166.712205,292.833872 C202.155058,291.085953 234.792556,275.682125 258.615661,249.466117 C282.435194,223.249317 294.588163,189.353145 292.833378,154.025024 C292.817111,153.682954 292.793307,153.341279 292.774263,153" id="Fill-9" fill="#2d5183"></path>
                <path d="M213.392919,292 C215.27208,291.309435 217.158553,290.574569 219,289.811633 L218.564749,289 C216.738311,289.756848 214.864152,290.488671 213,291.17281 L213.392919,292" id="Fill-10" fill="#2d5183"></path>
                <path d="M44.8962782,245 L44,245.558582 C45.3334459,247.060634 46.7251245,248.555964 48.1332602,250 L49,249.40675 C47.6019917,247.972619 46.2225504,246.488255 44.8962782,245" id="Fill-11" fill="#2d5183"></path>
                <path d="M37.8342562,234 L37,234.565831 C38.0217793,236.392678 39.0944998,238.222373 40.1901071,240 L41,239.393898 C39.912883,237.628881 38.8482835,235.815051 37.8342562,234" id="Fill-12" fill="#2d5183"></path>
                <path d="M23.0423035,200 L22,200.280339 C22.6103985,202.19492 23.2744269,204.119661 23.9736627,206 L25,205.677893 C24.3060862,203.810724 23.6473799,201.898777 23.0423035,200" id="Fill-13" fill="#2d5183"></path>
                <path d="M61.6680162,263 L61,263.767091 C62.417004,265.203895 63.8862716,266.627583 65.3643725,268 L66,267.201908 C64.5322046,265.83903 63.0743467,264.424881 61.6680162,263" id="Fill-14" fill="#2d5183"></path>
                <path d="M31.9740699,223 L31,223.465494 C31.9691504,225.321188 32.9961054,227.185125 34.0501179,229 L35,228.493687 C33.9533668,226.691764 32.935021,224.843135 31.9740699,223" id="Fill-15" fill="#2d5183"></path>
                <path d="M26.8638432,212 L26,212.372416 C26.6769338,214.259377 27.40042,216.152462 28.1526076,218 L29,217.590074 C28.2551628,215.754019 27.5355268,213.87433 26.8638432,212" id="Fill-16" fill="#2d5183"></path>
                <path d="M202.302832,296 C204.207426,295.373199 206.124481,294.693739 208,293.978517 L207.655255,293 C205.794462,293.709327 203.891756,294.38525 202,295.007336 L202.302832,296" id="Fill-17" fill="#2d5183"></path>
                <path d="M177,300.954898 L177.128175,302 C179.08396,301.725015 181.059865,301.402345 183,301.036757 L182.829349,300 C180.901509,300.361613 178.940135,300.683489 177,300.954898" id="Fill-18" fill="#2d5183"></path>
                <path d="M190,298.776956 L190.212631,300 C192.143871,299.457422 194.091928,298.856288 196,298.208405 L195.743647,297 C193.849402,297.639855 191.916293,298.241461 190,298.776956" id="Fill-19" fill="#2d5183"></path>
                <path d="M71.5725378,271 L71,271.894389 C72.4560017,273.297529 73.9571209,274.678792 75.4599888,276 L76,275.074725 C74.5079743,273.764242 73.0190963,272.391558 71.5725378,271" id="Fill-20" fill="#2d5183"></path>
                <path d="M81.5835291,279 L81,279.834446 C82.7856232,280.92197 84.6219881,281.986556 86.4571448,283 L87,282.141863 C85.1789382,281.135941 83.3566682,280.08038 81.5835291,279" id="Fill-21" fill="#2d5183"></path>
                <path d="M107.828498,291.71863 C106.361256,291.164026 104.897099,290.593148 103.455868,290 L103,291.045824 C104.645798,291.725054 106.324222,292.373448 108,293 L107.828498,291.71863" id="Fill-22" fill="#2d5183"></path>
                <path d="M92.4866129,285 L92,285.980902 C93.8232389,287.027282 95.6917078,288.043442 97.5551079,289 L98,287.996013 C96.1510268,287.044491 94.2958149,286.036306 92.4866129,285" id="Fill-23" fill="#2d5183"></path>
                <path d="M52.7744714,255 L52,255.659062 C53.3794049,257.127414 54.811668,258.589428 56.256852,260 L57,259.309252 C55.5646045,257.909118 54.1433046,256.459405 52.7744714,255" id="Fill-24" fill="#2d5183"></path>
                <path d="M49,69.5957688 L48.1388445,69 C46.7243293,70.4494446 45.3312589,71.9424043 44,73.437133 L44.8931124,74 C46.2134387,72.5165924 47.5964175,71.0349537 49,69.5957688" id="Fill-25" fill="#2d5183"></path>
                <path d="M66.3671864,51 C64.8916017,52.3663879 63.4226357,53.7885305 62,55.2281959 L62.6662745,56 C64.0786145,54.570689 65.5358141,53.1589008 67,51.8032656 L66.3671864,51" id="Fill-26" fill="#2d5183"></path>
                <path d="M57.2608662,60 C55.8162133,61.4085243 54.3821138,62.8666866 53,64.3386579 L53.7707942,65 C55.1435272,63.5395984 56.5659006,62.0900202 58,60.6930656 L57.2608662,60" id="Fill-27" fill="#2d5183"></path>
                <path d="M74.8563028,44 C73.5556781,45.0292257 72.260566,46.0841619 71,47.1607914 L71.5997795,48 C72.7126057,47.0495129 73.8533627,46.117907 75,45.2031736 L74.8563028,44" id="Fill-28" fill="#2d5183"></path>
                <path d="M134,19.95975 L133.840546,19 C132.229545,19.3058261 130.6062,19.6553942 129,20.0306929 L129.118648,21 C130.736164,20.6199228 132.374254,20.2681492 134,19.95975" id="Fill-29" fill="#2d5183"></path>
                <path d="M165,302.280371 L165.128825,303 C167.080091,302.93721 169.055157,302.844117 171,302.721813 L170.913109,302 C168.954666,302.124215 166.96411,302.217854 165,302.280371" id="Fill-30" fill="#2d5183"></path>
                <path d="M41.1971366,79 C40.1005874,80.7756554 39.0253304,82.6033327 38,84.4314164 L38.8274596,85 C39.8443465,83.1853282 40.9118943,81.3706564 42,79.6071937 L41.1971366,79" id="Fill-31" fill="#2d5183"></path>
                <path d="M34.058008,90 C33.0030584,91.8106021 31.9737996,93.6706806 31,95.5307592 L31.965236,96 C32.9321032,94.1536649 33.9532062,92.3077225 35,90.5100785 L34.058008,90" id="Fill-32" fill="#2d5183"></path>
                <path d="M19.734851,125 C19.1030134,126.914624 18.5198166,128.867593 18,130.80381 L19.277432,131 C19.793318,129.07793 20.3716017,127.140225 21,125.240119 L19.734851,125" id="Fill-33" fill="#2d5183"></path>
                <path d="M28.1603053,101 C27.4059681,102.848332 26.6790423,104.741438 26,106.625359 L26.8539209,107 C27.5294934,105.130238 28.2505205,103.251674 29,101.416353 L28.1603053,101" id="Fill-34" fill="#2d5183"></path>
                <path d="M23.9848833,113 C23.2815495,114.882449 22.6126333,116.805878 22,118.715772 L23.0296936,119 C23.6374679,117.104393 24.3007153,115.194874 25,113.326336 L23.9848833,113" id="Fill-35" fill="#2d5183"></path>
                <path d="M296.123562,200 C296.7977,198.098673 297.427602,196.161091 298,194.241824 L296.860955,194 C296.29652,195.905064 295.667502,197.828817 295,199.716688 L296.123562,200" id="Fill-36" fill="#2d5183"></path>
                <path d="M288.205131,102 L289,101.585446 C288.298472,99.7147281 287.550437,97.8358816 286.777183,96 L286,96.4575189 C286.767686,98.2794658 287.50917,100.145152 288.205131,102" id="Fill-37" fill="#2d5183"></path>
                <path d="M269.165177,70 L270,69.393072 C268.642346,67.9070947 267.230663,66.4290891 265.803542,65 L265,65.6395391 C266.416152,67.0577578 267.816461,68.5252555 269.165177,70" id="Fill-38" fill="#2d5183"></path>
                <path d="M225.489658,286 C227.338466,285.018077 229.194013,283.978228 231,282.914012 L230.469504,282 C228.676601,283.057825 226.83612,284.088485 225,285.062419 L225.489658,286" id="Fill-39" fill="#2d5183"></path>
                <path d="M277.032457,80 L278,79.4863819 C276.695096,77.9742154 275.328012,76.465851 273.93976,75 L273,75.5474907 C274.379432,77.0022812 275.735491,78.4995852 277.032457,80" id="Fill-40" fill="#2d5183"></path>
                <path d="M158.998495,17.891719 L159,17.0002504 C157.011039,16.9965513 154.992724,17.033878 153,17.1095402 L153.043279,18 C155.019821,17.9250104 157.023459,17.8886925 158.998495,17.891719" id="Fill-41" fill="#2d5183"></path>
                <path d="M140.143306,19 L140.462734,18.9537183 C142.6331,18.6472703 144.832958,18.3898 147,18.1875983 L146.904047,17 C144.721635,17.2044484 142.507655,17.4641654 140.318597,17.77286 L140,17.8182431 L140.143306,19" id="Fill-42" fill="#2d5183"></path>
                <path d="M171.90904,18 L172,17.2909286 C170.027325,17.1629093 168.022834,17.0652174 166.046042,17 L166,17.7101449 C167.965188,17.7753623 169.952461,17.8725174 171.90904,18" id="Fill-43" fill="#2d5183"></path>
                <path d="M207.647591,27 L208,26.0379551 C206.119859,25.317196 204.20576,24.6309063 202.309018,24 L202,24.9763749 C203.883159,25.6026336 205.782166,26.2838885 207.647591,27" id="Fill-44" fill="#2d5183"></path>
                <path d="M196.737784,23 L197,21.8117938 C195.099217,21.1589537 193.153674,20.5497601 191.218948,20 L191,21.2007429 C192.918314,21.7449311 194.848937,22.3508745 196.737784,23" id="Fill-45" fill="#2d5183"></path>
                <path d="M183.821919,20 L184,18.9790484 C182.056753,18.6074016 180.08221,18.2776581 178.13263,18 L178,19.028784 C179.936541,19.3056589 181.895436,19.6322694 183.821919,20" id="Fill-46" fill="#2d5183"></path>
                <path d="M283.100302,91 L284,90.4863875 C283.002627,88.6396193 281.952719,86.7940491 280.880241,85 L280,85.55435 C281.064306,87.3348199 282.108376,89.1676097 283.100302,91" id="Fill-47" fill="#2d5183"></path>
                <path d="M265.799386,255 C267.227611,253.570651 268.641691,252.09483 270,250.611748 L269.171516,250 C267.824119,251.47219 266.420951,252.938208 265,254.35594 L265.799386,255" id="Fill-48" fill="#2d5183"></path>
                <path d="M272.928246,245 C274.317768,243.538568 275.690205,242.031131 277,240.518852 L276.042404,240 C274.740056,241.501211 273.380322,242.998962 272,244.44898 L272.928246,245" id="Fill-49" fill="#2d5183"></path>
                <path d="M280.865979,235 C281.945852,233.20435 282.997591,231.360008 284,229.519258 L283.108199,229 C282.11504,230.82718 281.068696,232.658352 280,234.439234 L280.865979,235" id="Fill-50" fill="#2d5183"></path>
                <path d="M236.492712,280 C238.007801,278.967102 239.525286,277.884813 241,276.780892 L240.475809,276 C239.009307,277.097071 237.50414,278.173231 236,279.196395 L236.492712,280" id="Fill-51" fill="#2d5183"></path>
                <path d="M286.765964,224 C287.542301,222.168238 288.291734,220.291543 289,218.422595 L288.215235,218 C287.515397,219.856165 286.768882,221.718141 286,223.537508 L286.765964,224" id="Fill-52" fill="#2d5183"></path>
                <path d="M246.582552,273 C248.072211,271.659303 249.557575,270.258211 251,268.835609 L250.384527,268 C248.952122,269.413916 247.47785,270.802598 246,272.135848 L246.582552,273" id="Fill-53" fill="#2d5183"></path>
                <path d="M255.684895,264 C257.148098,262.608136 258.599955,261.167347 260,259.716157 L259.283715,259 C257.895394,260.440789 256.45337,261.872717 255,263.251098 L255.684895,264" id="Fill-54" fill="#2d5183"></path>
                <path d="M299.020911,138 L300,137.850224 C299.699776,135.892325 299.353249,133.924367 298.971994,132 L298,132.191505 C298.379014,134.101714 298.722928,136.055514 299.020911,138" id="Fill-55" fill="#2d5183"></path>
                <path d="M291.917546,213 C292.649944,211.136912 293.350304,209.228734 294,207.330028 L293.06718,207 C292.423072,208.883549 291.72681,210.777329 291,212.626776 L291.917546,213" id="Fill-56" fill="#2d5183"></path>
                <path d="M293.051101,114 L294,113.67627 C293.355066,111.777104 292.659157,109.866945 291.932662,108 L291,108.365428 C291.721963,110.219484 292.412209,112.114102 293.051101,114" id="Fill-57" fill="#2d5183"></path>
                <path d="M296.843178,126 L298,125.764911 C297.437331,123.843773 296.813493,121.903544 296.147376,120 L295,120.277764 C295.663418,122.167831 296.283208,124.092338 296.843178,126" id="Fill-58" fill="#2d5183"></path>
                <path d="M301,149.934978 C300.91675,147.971226 300.8001,145.975336 300.656032,144 L300,144.107623 C300.142074,146.068012 300.256231,148.050822 300.341226,150 L301,149.934978" id="Fill-59" fill="#2d5183"></path>
                <path d="M298.954587,188 C299.344365,186.06918 299.696268,184.101844 300,182.153884 L299.037323,182 C298.735429,183.932683 298.386836,185.88586 298,187.802521 L298.954587,188" id="Fill-60" fill="#2d5183"></path>
                <path d="M300.647174,176 C300.79312,174.036241 300.911794,172.040725 301,170.067252 L300.349386,170 C300.261916,171.958902 300.145946,173.9391 300,175.889034 L300.647174,176" id="Fill-61" fill="#2d5183"></path>
                <path d="M301.964881,163 C302.009268,161.008531 302.011451,158.988834 301.972158,157 L301.00764,157.021454 C301.04657,158.995232 301.043296,160.999498 301,162.97704 L301.964881,163" id="Fill-62" fill="#2d5183"></path>
                <path d="M283,160.500793 C283,228.154882 228.154793,283 160.500595,283 C92.8452073,283 38,228.154882 38,160.500793 C38,92.8451185 92.8452073,38 160.500595,38 C228.154793,38 283,92.8451185 283,160.500793" id="Fill-63" stroke="#2d5183" fill="#FFFFFE"></path>
                <polygon id="Fill-64" fill="#DCDBD7" points="102 198 123 198 123 132 102 132"></polygon>
                <polygon id="Fill-65" fill="#DCDBD7" points="150 198 171 198 171 132 150 132"></polygon>
                <polygon id="Fill-66" fill="#DCDBD7" points="198 198 219 198 219 132 198 132"></polygon>
                <path d="M97,130 L97,134.492185 C97,137.524971 99.5435515,140 102.666557,140 L122.331088,140 C125.454878,140 128,137.524971 128,134.492185 L128,130 L97,130" id="Fill-67" fill="#B7B7B3"></path>
                <path d="M145,130 L145,134.492185 C145,137.524971 147.532911,140 150.645466,140 L170.352969,140 C173.462395,140 176,137.524971 176,134.492185 L176,130 L145,130" id="Fill-68" fill="#B7B7B3"></path>
                <path d="M193,130 L193,134.492185 C193,137.524971 195.534084,140 198.647813,140 L218.356489,140 C221.465133,140 224,137.524971 224,134.492185 L224,130 L193,130" id="Fill-69" fill="#B7B7B3"></path>
                <polyline id="Fill-70" fill="#DCDBD7" points="245.742506 122.243299 159.993464 78 74.2404597 122.243299 74.0257494 122.243299 74.0257494 122.352583 74 122.366095 74.0257494 122.366095 74.0257494 131 246 131 246 122.243299 245.742506 122.243299"></polyline>
                <polyline id="Fill-71" fill="#FFFEFD" points="106 120 160.501786 92 215 120 106 120"></polyline>
                <polygon id="Fill-72" fill="#DCDBD7" points="85 211 235 211 235 202 85 202"></polygon>
                <polygon id="Fill-73" fill="#B7B7B3" points="78 219 243 219 243 210 78 210"></polygon>
                <polygon id="Fill-74" fill="#B7B7B3" points="97 203 128 203 128 198 97 198"></polygon>
                <polygon id="Fill-75" fill="#B7B7B3" points="145 203 176 203 176 198 145 198"></polygon>
                <polygon id="Fill-76" fill="#B7B7B3" points="193 203 224 203 224 198 193 198"></polygon>
                <path d="M168,106.999213 C168,111.417822 164.418521,115 159.999803,115 C155.581872,115 152,111.417822 152,106.999213 C152,102.582178 155.581872,99 159.999803,99 C164.418521,99 168,102.582178 168,106.999213" id="Fill-77" fill="#DCDBD7"></path>
            </g>
        </g>
    </g>
</svg>
